<svg xmlns="http://www.w3.org/2000/svg" viewBox="0 0 512 512" width="512" height="512">
  <defs>
    <linearGradient id="mbg" x1="0" y1="0" x2="1" y2="1">
      <stop offset="0" stop-color="#44337E"/><stop offset="1" stop-color="#141029"/>
    </linearGradient>
    <radialGradient id="mgl" cx="18%" cy="12%" r="78%">
      <stop offset="0" stop-color="#FFFFFF" stop-opacity=".20"/>
      <stop offset="1" stop-color="#FFFFFF" stop-opacity="0"/>
    </radialGradient>
    <mask id="mm">
      <rect width="512" height="512" fill="#fff"/>
      <rect x="248" y="256" width="16" height="150" fill="#000"/>
    </mask>
    <filter id="mg" x="0" y="0" width="100%" height="100%" color-interpolation-filters="sRGB">
      <feTurbulence type="fractalNoise" baseFrequency="0.870" numOctaves="4" stitchTiles="stitch"/>
      <feColorMatrix type="saturate" values="0"/>
    </filter>
  </defs>
  <rect width="512" height="512" fill="url(#mbg)"/>
  <rect width="512" height="512" fill="url(#mgl)"/>
<path d="M146 262H366V380A20 20 0 0 1 346 400H166A20 20 0 0 1 146 380Z" fill="#D9D2F5"/><rect x="118" y="196" width="276" height="66" rx="18" fill="#FFFFFF"/><path d="M256 206C256 206 198 172 198 142C198 124 212 114 226 114C238 114 249 121 256 130C263 121 274 114 286 114C300 114 314 124 314 142C314 172 256 206 256 206Z" fill="#fff"/>
    <rect x="168" y="316" width="44" height="56" rx="10" fill="#4B3BC4" opacity=".5"/>
    <rect x="234" y="288" width="44" height="84" rx="10" fill="#4B3BC4"/>
    <rect x="300" y="304" width="44" height="68" rx="10" fill="#4B3BC4" opacity=".5"/>

</svg>
